<?xml version="1.0" standalone="no"?>
<!DOCTYPE svg PUBLIC "-//W3C//DTD SVG 20010904//EN"
 "http://www.w3.org/TR/2001/REC-SVG-20010904/DTD/svg10.dtd">
<svg version="1.0" xmlns="http://www.w3.org/2000/svg"
 width="512.000000pt" height="512.000000pt" viewBox="0 0 512.000000 512.000000"
 preserveAspectRatio="xMidYMid meet">

<g transform="translate(0.000000,512.000000) scale(0.100000,-0.100000)"
fill="#000000" stroke="none">
<path d="M90 3368 c-30 -15 -53 -37 -67 -63 -21 -37 -23 -53 -23 -207 0 -93 5
-179 11 -195 5 -15 75 -93 153 -173 l143 -145 7 -132 c4 -76 15 -165 26 -208
53 -207 214 -386 420 -468 107 -42 193 -49 560 -45 373 5 390 7 535 77 102 49
193 118 257 194 117 141 145 213 212 556 l52 264 50 26 c70 37 185 37 264 0
l55 -26 44 -229 c69 -361 91 -425 191 -557 95 -125 265 -239 425 -284 78 -21
683 -31 809 -13 160 23 286 90 403 213 126 133 177 269 189 500 l7 132 143
145 c78 80 148 158 153 173 6 16 11 102 11 195 0 154 -2 170 -23 207 -14 26
-37 48 -67 63 l-44 22 -956 0 c-644 0 -976 -4 -1016 -11 -85 -15 -173 -61
-231 -119 -48 -48 -52 -50 -79 -39 -41 17 -209 17 -267 0 l-47 -14 -52 52
c-59 59 -147 104 -232 120 -40 7 -372 11 -1016 11 l-956 0 -44 -22z m291 -221
c97 -65 51 -217 -66 -217 -117 0 -163 152 -66 217 19 13 48 23 66 23 18 0 47
-10 66 -23z m4490 0 c97 -65 51 -217 -66 -217 -117 0 -163 152 -66 217 19 13
48 23 66 23 18 0 47 -10 66 -23z m-2970 -98 c78 -26 129 -89 142 -174 5 -27
-7 -110 -39 -270 -36 -184 -52 -244 -79 -302 -43 -86 -116 -157 -213 -205
l-67 -33 -375 0 -375 0 -53 28 c-72 38 -138 106 -169 173 -27 61 -37 139 -48
404 -6 129 -4 162 9 199 29 81 97 149 173 177 51 18 1041 20 1094 3z m2451
-21 c61 -37 113 -99 134 -161 14 -42 16 -74 10 -201 -13 -267 -22 -340 -49
-400 -31 -67 -97 -135 -169 -173 l-53 -28 -375 0 -375 0 -67 33 c-97 48 -170
119 -213 205 -27 58 -43 118 -80 305 -32 163 -44 245 -39 270 15 82 66 144
139 170 20 7 206 10 560 9 l530 -2 47 -27z"/>
</g>
</svg>
